<svg id="Layer_1" height="512" viewBox="0 0 64 64" width="512" xmlns="http://www.w3.org/2000/svg" data-name="Layer 1"><path d="m4 1h46v62h-46z" fill="#23a8cc"/><path d="m42 60h-1a1 1 0 0 1 0-2h1a1 1 0 0 1 0 2z" fill="#9edfe0"/><path d="m46 60h-1a1 1 0 0 1 0-2h1a1 1 0 0 1 0 2z" fill="#9edfe0"/><path d="m38 60h-1a1 1 0 0 1 0-2h1a1 1 0 0 1 0 2z" fill="#9edfe0"/><g fill="#1d7d9f"><path d="m7 6h-6a1 1 0 0 1 0-2h6a1 1 0 0 1 0 2z"/><path d="m7 12h-6a1 1 0 0 1 0-2h6a1 1 0 0 1 0 2z"/><path d="m7 18h-6a1 1 0 0 1 0-2h6a1 1 0 0 1 0 2z"/><path d="m7 24h-6a1 1 0 0 1 0-2h6a1 1 0 0 1 0 2z"/><path d="m7 30h-6a1 1 0 0 1 0-2h6a1 1 0 0 1 0 2z"/><path d="m7 36h-6a1 1 0 0 1 0-2h6a1 1 0 0 1 0 2z"/><path d="m7 42h-6a1 1 0 0 1 0-2h6a1 1 0 0 1 0 2z"/><path d="m7 48h-6a1 1 0 0 1 0-2h6a1 1 0 0 1 0 2z"/><path d="m7 54h-6a1 1 0 0 1 0-2h6a1 1 0 0 1 0 2z"/><path d="m7 60h-6a1 1 0 0 1 0-2h6a1 1 0 0 1 0 2z"/></g><path d="m14 9h29v10h-29z" fill="#fcc325"/><path d="m50 1h5v62h-5z" fill="#9edfe0"/><path d="m55 1h5v62h-5z" fill="#1d7d9f"/></svg>