<?xml version="1.0"?>
<svg xmlns="http://www.w3.org/2000/svg" id="text-file" enable-background="new 0 0 300 300" height="512px" viewBox="0 0 300 300" width="512px" class=""><g><g><path d="m257.656 73.172-32-32c-.75-.75-1.766-1.172-2.828-1.172h-120c-6.617 0-12 5.383-12 12v196c0 6.617 5.383 12 12 12h144c6.617 0 12-5.383 12-12v-172c0-1.061-.422-2.078-1.172-2.828zm-30.828-19.516 18.344 18.344h-18.344zm20 198.344h-144c-2.207 0-4-1.795-4-4v-196c0-2.205 1.793-4 4-4h116v28c0 2.209 1.789 4 4 4h28v168c0 2.205-1.793 4-4 4z" data-original="#000000" class="active-path" data-old_color="#000000" fill="#FFFFFF"/><path d="m59.312 167.516c-1.562-1.562-4.094-1.562-5.656 0l-2.828 2.828-2.828-2.828c-1.562-1.562-4.094-1.562-5.656 0s-1.562 4.094 0 5.656l2.828 2.828-2.828 2.828c-1.562 1.562-1.562 4.094 0 5.656.781.781 1.805 1.172 2.828 1.172s2.047-.391 2.828-1.172l2.828-2.828 2.828 2.828c.781.781 1.805 1.172 2.828 1.172s2.047-.391 2.828-1.172c1.562-1.562 1.562-4.094 0-5.656l-2.828-2.828 2.828-2.828c1.563-1.563 1.563-4.094 0-5.656z" data-original="#000000" class="active-path" data-old_color="#000000" fill="#FFFFFF"/><circle cx="78.828" cy="164" r="4" data-original="#000000" class="active-path" data-old_color="#000000" fill="#FFFFFF"/><circle cx="66.828" cy="120" r="4" data-original="#000000" class="active-path" data-old_color="#000000" fill="#FFFFFF"/><path d="m222.828 100h-96c-2.211 0-4 1.791-4 4v36c0 2.209 1.789 4 4 4h8.766c6.195 0 11.234-5.039 11.234-11.234v-4.766h12v56h-4.766c-6.195 0-11.234 5.039-11.234 11.234v8.766c0 2.209 1.789 4 4 4h56c2.211 0 4-1.791 4-4v-8.766c0-6.195-5.039-11.234-11.234-11.234h-4.766v-56h12v4.766c0 6.195 5.039 11.234 11.234 11.234h8.766c2.211 0 4-1.791 4-4v-36c0-2.209-1.789-4-4-4zm-72 95.234c0-1.783 1.449-3.234 3.234-3.234h8.766c2.211 0 4-1.791 4-4v-64c0-2.209-1.789-4-4-4h-20c-2.211 0-4 1.791-4 4v8.766c0 1.783-1.449 3.234-3.234 3.234h-4.766v-28h40v92h-20zm68-59.234h-4.766c-1.785 0-3.234-1.451-3.234-3.234v-8.766c0-2.209-1.789-4-4-4h-20c-2.211 0-4 1.791-4 4v64c0 2.209 1.789 4 4 4h8.766c1.785 0 3.234 1.451 3.234 3.234v4.766h-20v-92h40z" data-original="#000000" class="active-path" data-old_color="#000000" fill="#FFFFFF"/></g></g> </svg>
