<svg height="512" viewBox="0 0 256 256" width="512" xmlns="http://www.w3.org/2000/svg"><g fill="#9be5f9"><path d="m20.689 160.779c7.51-20.652 25.368-22.994 36.817-22.146-.534.692-1.048 1.405-1.531 2.151a29.994 29.994 0 0 0 -3.782 8.329c-13.768 4.308-9.234 21.2-6.488 41.336 2.643 19.378-10.05 28.754-16.375 32.167a1.571 1.571 0 0 1 -2.242-1.834c6.529-22.823-15.275-35.594-6.399-60.003z"/><path d="m218.5 114.441a2.847 2.847 0 0 1 1.278-4.4 22.743 22.743 0 0 0 9.036-6.563 1.671 1.671 0 0 0 -.973-2.74c-4.135-.7-12.329-1.646-19.435.143a3.636 3.636 0 0 1 -2.714-.408c-5.493-3.193-27.736-13.494-50.877 12.666a133.2 133.2 0 0 1 -14.989 15c3.558-14.094 15.86-48.639 50.949-48.639 34.812 0 44.44 25.947 46.835 35.75a3.344 3.344 0 0 1 -2.83 4.127l-12.567 1.546a25.832 25.832 0 0 0 -3.713-6.482z"/><path d="m142.528 136.815c-5.828-10.926-15.8-36.173-6.215-68.71a11.2 11.2 0 0 0 -7.83-14.06c-22.719-5.96-73.065-21.694-105.354-50.783a2.879 2.879 0 0 0 -4.829 2.247 38.94 38.94 0 0 0 19.353 32.235c21.315 12.788 60.459 22.689 82.817 26.889a4.819 4.819 0 0 1 3.768 5.985c-2.986 11.147-7.925 39.493 6.96 71.783a6.333 6.333 0 0 0 8.241 3.181 6.308 6.308 0 0 0 3.089-8.767z"/></g><path d="m37.653 37.744c21.315 12.788 60.459 22.689 82.817 26.889a4.819 4.819 0 0 1 3.768 5.985c-.573 2.136-1.216 4.909-1.778 8.214-94.288-6.688-95.32-35.3-91.969-46.46a42.459 42.459 0 0 0 7.162 5.372z" fill="#3caadc"/><path d="m122.46 78.832a104.715 104.715 0 0 0 -1.422 14.639c-69.668 4.752-78.76-23.071-79.51-34.919 12.177 8.9 35.926 17.088 80.932 20.28z" fill="#70d6f9"/><path d="m121.038 93.47a107.708 107.708 0 0 0 .61 14.791c-52.06 9.976-61.056-12.538-62.416-23.623 11.598 6.562 30.636 10.962 61.806 8.832z" fill="#3caadc"/><path d="m121.649 108.256a108.629 108.629 0 0 0 2.686 14.779c-38.446 9.8-47.429-7.531-49.515-16.8 9.245 4.49 23.83 6.428 46.829 2.021z" fill="#70d6f9"/><path d="m124.335 123.035a111.4 111.4 0 0 0 5.8 16.972c-32.463 10.572-36.527-15.19-36.527-15.19l.011-.014c7.224 1.762 17.121 1.697 30.716-1.768z" fill="#3caadc"/><path d="m100.44 249.193c-1.124-6.086-9.076-8.1-11.748-10.773-4.639-4.64-23.2-23.2-12.759-32.479 7.952-7.069 18.589-10.778 23.21-19.319-1.805 6.873-1.99 13.86-8.131 19.319-10.439 9.28 6.96 27.839 11.6 32.479 2.672 2.672 10.624 4.687 11.748 10.773a3.641 3.641 0 0 1 -3.573 4.307h-13.919a3.641 3.641 0 0 0 3.572-4.307z" fill="#dae6f1"/><path d="m170.187 219.041c2.76-1.51 5.082-4.709 6.1-8.64 1.542-5.955 4.834-16.873-16.99-18.313l.107-.291a9.722 9.722 0 0 1 4.012-4.835 32.785 32.785 0 0 0 10.334-10.462c6.088 3.843 15.716 10.517 17.091 15.09 2.033 6.757-6.058 21.239-7.184 30.738-.93 7.851-2.806 11.429-7.728 14.964a2.893 2.893 0 0 1 -4.493-1.643l-3.1-12.448a3.718 3.718 0 0 1 1.851-4.16z" fill="#dae6f1"/><path d="m110.787 256h-13.919a2.5 2.5 0 0 1 0-5 1.116 1.116 0 0 0 .867-.408 1.135 1.135 0 0 0 .247-.945c-.559-3.024-3.878-4.912-6.807-6.576a20.178 20.178 0 0 1 -4.25-2.883c-4.192-4.188-16.94-16.941-16.625-27.646a11.392 11.392 0 0 1 3.971-8.47 80.725 80.725 0 0 1 9.748-7.083c5.3-3.456 10.309-6.722 12.925-11.556a2.5 2.5 0 0 1 4.617 1.824c-.36 1.369-.662 2.79-.955 4.164-1.206 5.662-2.453 11.517-7.933 16.389a6.94 6.94 0 0 0 -2.438 5.234c-.2 6.778 7.177 16.64 14.145 23.609a17.753 17.753 0 0 0 3.186 2.071c3.491 1.984 8.271 4.7 9.252 10.015a6.14 6.14 0 0 1 -6.031 7.261zm-7.891-5h7.891a1.113 1.113 0 0 0 .868-.408 1.131 1.131 0 0 0 .246-.945c-.558-3.024-3.878-4.912-6.806-6.576a20.178 20.178 0 0 1 -4.25-2.883c-4.793-4.788-15.908-17.046-15.608-27.288a11.862 11.862 0 0 1 4.114-8.825 17.1 17.1 0 0 0 5.054-8.274 89.892 89.892 0 0 1 -7.655 5.38 76.7 76.7 0 0 0 -9.156 6.632 6.482 6.482 0 0 0 -2.3 4.879c-.114 3.9 2.423 11.222 15.161 23.962a17.737 17.737 0 0 0 3.188 2.073c3.491 1.984 8.271 4.7 9.253 10.015a6.159 6.159 0 0 1 .004 2.258z"/><path d="m174.242 240.332a5.392 5.392 0 0 1 -5.231-4.083l-3.1-12.448a6.225 6.225 0 0 1 3.077-6.953c2.191-1.2 4.061-3.909 4.881-7.074l.093-.36c.8-3.089 1.807-6.933-.237-9.766-2.062-2.858-6.972-4.563-14.59-5.065a2.5 2.5 0 0 1 -2.18-3.362l.07-.192.035-.095a12.147 12.147 0 0 1 5.026-6.087 30.345 30.345 0 0 0 9.547-9.679 2.5 2.5 0 0 1 3.453-.786c10.806 6.821 16.912 12.368 18.15 16.484 1.426 4.741-.947 11.6-3.461 18.853-1.574 4.545-3.2 9.244-3.634 12.9-1.009 8.511-3.218 12.725-8.753 16.7a5.389 5.389 0 0 1 -3.146 1.013zm-10.699-50.332c7.008.971 11.684 3.184 14.236 6.721 3.421 4.741 1.976 10.284 1.021 13.951l-.092.354c-1.172 4.525-3.909 8.34-7.321 10.206a1.224 1.224 0 0 0 -.625 1.358l3.1 12.448a.367.367 0 0 0 .242.267.374.374 0 0 0 .366-.05c4.355-3.127 5.859-6.094 6.705-13.228.5-4.191 2.214-9.15 3.875-13.946 2.042-5.9 4.357-12.584 3.4-15.776-.6-1.995-4.614-6.249-13.991-12.386a34.9 34.9 0 0 1 -9.706 9.157 8.119 8.119 0 0 0 -1.21.924z"/><path d="m100.44 249.193a3.641 3.641 0 0 1 -3.572 4.307h13.919a3.641 3.641 0 0 0 3.573-4.307c-.69-3.733-3.947-5.932-6.98-7.693h-13.92c3.033 1.761 6.291 3.96 6.98 7.693z" fill="#f5c84c"/><path d="m174.673 214.4a12 12 0 0 1 -4.486 4.644 3.718 3.718 0 0 0 -1.851 4.156l3.1 12.448a2.893 2.893 0 0 0 4.493 1.643c4.155-2.984 6.135-6.009 7.212-11.6z" fill="#f5c84c"/><path d="m94.357 127.6c2.168 6.355 10.054 20.783 35.778 12.406.345.8.693 1.593 1.063 2.4a6.319 6.319 0 1 0 11.33-5.586 82.622 82.622 0 0 1 -3.677-7.908c4.73-3.68 9.858-8.866 15.96-15.764 23.141-26.16 45.384-15.859 50.877-12.666a3.636 3.636 0 0 0 2.714.408c7.106-1.789 15.3-.84 19.435-.143a1.671 1.671 0 0 1 .973 2.74 22.743 22.743 0 0 1 -9.036 6.563 2.847 2.847 0 0 0 -1.278 4.4c3.162 4.072 7.173 11.455 3.588 19.807a4.547 4.547 0 0 0 -.378 2.292l1.773 16.068a8.065 8.065 0 0 1 -10.968 8.439q-.467-.194-.951-.438a13.5 13.5 0 0 1 -7.3-11.291 5.993 5.993 0 0 0 -3.2-4.8c-4.15-2.151-11-7.082-12.47-16.658 0 0-8.26 8.479-8.26 23.559 0 14.026-5.018 28.052-16.92 35.544a9.7 9.7 0 0 0 -4 4.825c-2.146 5.838-6.651 18.294-9.236 26.91-3.48 11.6-5.8 18.559-3.48 20.879 2.038 2.037 9.442 4.075 11.216 10.825a2.463 2.463 0 0 1 -2.372 3.095h-16.027a3.737 3.737 0 0 1 -3.293-1.98c-1.559-2.9-3.909-8.58-2.286-14.26 2.256-7.9 8.9-28.966 9.264-46.124a1.164 1.164 0 0 0 -1.409-1.15 77.078 77.078 0 0 1 -42.535-3.548c-4.566 8.676-15.308 12.382-23.319 19.5-10.44 9.28 8.12 27.839 12.759 32.479 2.672 2.672 10.624 4.687 11.748 10.773a3.641 3.641 0 0 1 -3.573 4.307h-19.157a3.165 3.165 0 0 1 -3.072-2.832c-2.177-22.822-20.738-29.671-14.945-44.73 8.784-22.839-3.48-15.08-8.12-44.079a29.143 29.143 0 0 1 4.4-21.078c8.265-12.757 24.213-17.784 38.384-13.184z" fill="#edf4fc"/><path d="m136.218 251.52a3.737 3.737 0 0 0 3.293 1.98h16.024a2.463 2.463 0 0 0 2.372-3.095c-1.252-4.766-5.306-7.179-8.3-8.905h-16.22a22.6 22.6 0 0 0 2.831 10.02z" fill="#fcdd86"/><path d="m74.638 250.668a3.165 3.165 0 0 0 3.072 2.832h19.157a3.641 3.641 0 0 0 3.573-4.307c-.689-3.733-3.947-5.932-6.98-7.693h-20.743a41.657 41.657 0 0 1 1.921 9.168z" fill="#fcdd86"/><path d="m35.372 111.6h-2.266v-2.27a3.071 3.071 0 0 0 -6.142 0v2.27h-2.264a3.071 3.071 0 0 0 0 6.142h2.265v2.258a3.071 3.071 0 0 0 6.142 0v-2.266h2.266a3.071 3.071 0 0 0 0-6.142z" fill="#70d6f9"/><path d="m197.857 49.366a10.8 10.8 0 0 1 -8.654-8.478.2.2 0 0 0 -.384 0 10.794 10.794 0 0 1 -8.654 8.478.19.19 0 0 0 0 .376 10.8 10.8 0 0 1 8.654 8.479.2.2 0 0 0 .384 0 10.8 10.8 0 0 1 8.654-8.479.19.19 0 0 0 0-.376z" fill="#f5c84c"/><circle cx="159.019" cy="60.285" fill="#ef4460" r="3.285"/><circle cx="30.019" cy="88.285" fill="#f5c84c" r="3.285"/><circle cx="206.019" cy="217.285" fill="#87d147" r="3.285"/><path d="m28.591 225.3a4.078 4.078 0 0 1 -3.906-5.21c2.889-10.1-.234-18.121-3.54-26.614-3.815-9.8-7.76-19.931-2.806-33.556 8.227-22.62 28.187-24.61 39.351-23.78a2.5 2.5 0 0 1 1.8 4.018c-.54.7-1 1.35-1.412 1.985a27.572 27.572 0 0 0 -3.478 7.637 2.5 2.5 0 0 1 -1.663 1.719c-9.581 3-8.515 13.349-5.808 31.385.353 2.35.716 4.764 1.052 7.227 2.885 21.164-11.393 31.321-17.666 34.705a4.052 4.052 0 0 1 -1.924.484zm-5.552-63.671c-4.311 11.856-.874 20.685 2.765 30.034 3.247 8.338 6.6 16.942 4.234 27.648 6.606-4.121 15.35-12.687 13.191-28.528-.333-2.44-.692-4.832-1.042-7.16-2.535-16.881-4.735-31.532 7.978-36.453a32.525 32.525 0 0 1 2.755-6.184c-11.116.155-23.941 4.306-29.881 20.643z"/><path d="m139.821 130.642a2.5 2.5 0 0 1 -2.423-3.112c1.691-6.7 5.771-19.572 14.084-30.506 10.102-13.285 23.318-20.024 39.289-20.024 37.172 0 47.105 28.822 49.264 37.656a5.844 5.844 0 0 1 -4.953 7.2l-12.567 1.547a2.5 2.5 0 0 1 -2.64-1.586 23.529 23.529 0 0 0 -3.354-5.848 5.248 5.248 0 0 1 -.92-4.662 5.441 5.441 0 0 1 3.271-3.6 19.928 19.928 0 0 0 7.022-4.744c-4.266-.611-11.011-1.138-16.881.34a6.111 6.111 0 0 1 -4.582-.671c-5.73-3.33-26.112-12.3-47.747 12.161a135.045 135.045 0 0 1 -15.284 15.289 2.5 2.5 0 0 1 -1.579.56zm50.95-48.642c-27.466 0-40.3 22.455-45.908 38.147 2.425-2.427 5.088-5.286 8.075-8.664 10.326-11.67 21.714-17.783 33.849-18.183a38.91 38.91 0 0 1 20.157 5.011 1.13 1.13 0 0 0 .847.145c6.745-1.7 14.3-1.095 18.973-.417-6.513-8.439-17.51-16.039-35.993-16.039zm29.7 30.905a28.932 28.932 0 0 1 3.294 5.308l10.706-1.318a.806.806 0 0 0 .581-.351.86.86 0 0 0 .126-.7 50.305 50.305 0 0 0 -4.171-11.131 4.154 4.154 0 0 1 -.3.393 25.494 25.494 0 0 1 -10.031 7.268.407.407 0 0 0 -.258.272.269.269 0 0 0 .052.26z"/><path d="m210.57 130.567a2.5 2.5 0 0 1 -2.5-2.406c-.143-3.819-2.677-4.271-2.7-4.275a2.5 2.5 0 0 1 .8-4.937c2.284.369 6.666 2.729 6.9 9.024a2.5 2.5 0 0 1 -2.4 2.592z"/><path d="m155.535 256h-16.024a6.233 6.233 0 0 1 -5.5-3.3c-1.73-3.22-4.355-9.6-2.488-16.131.216-.757.473-1.635.76-2.619 2.531-8.659 7.7-26.339 8.354-41.207a79.468 79.468 0 0 1 -40.3-3.25c-3.333 5-8.533 8.392-13.581 11.68a76.582 76.582 0 0 0 -9.162 6.633 6.482 6.482 0 0 0 -2.3 4.879c-.114 3.9 2.423 11.222 15.161 23.962a17.737 17.737 0 0 0 3.188 2.073c3.491 1.984 8.271 4.7 9.253 10.015a6.141 6.141 0 0 1 -6.029 7.265h-19.157a5.651 5.651 0 0 1 -5.56-5.095c-.974-10.21-5.458-17.08-9.413-23.142-4.568-7-8.882-13.609-5.378-22.72 4.575-11.892 3.14-14.288-.005-19.537-2.608-4.355-6.181-10.318-8.25-23.249a31.628 31.628 0 0 1 4.773-22.833c8.7-13.424 25.659-19.264 41.252-14.2a2.5 2.5 0 0 1 1.594 1.571c2.462 7.214 9.973 18.216 32.638 10.836a2.5 2.5 0 0 1 3.068 1.383c.338.778.677 1.558 1.039 2.342a3.824 3.824 0 0 0 7.087-.315 3.759 3.759 0 0 0 -.232-3.047 85.055 85.055 0 0 1 -3.79-8.149 2.5 2.5 0 0 1 .783-2.909c4.344-3.38 9.162-8.144 15.622-15.448 10.326-11.675 21.714-17.788 33.849-18.188a38.818 38.818 0 0 1 20.157 5.011 1.13 1.13 0 0 0 .847.145c7.519-1.893 16.047-.927 20.461-.183a4.169 4.169 0 0 1 2.456 6.831 25.494 25.494 0 0 1 -10.031 7.268.407.407 0 0 0 -.258.272.268.268 0 0 0 .052.26c3.245 4.179 8.069 12.638 3.91 22.326a2.145 2.145 0 0 0 -.191 1.032l1.774 16.068a10.584 10.584 0 0 1 -4.217 9.708 10.276 10.276 0 0 1 -10.2 1.313c-.365-.151-.739-.322-1.119-.515-5.021-2.537-8.1-7.257-8.657-13.291a3.5 3.5 0 0 0 -1.866-2.809 25.985 25.985 0 0 1 -12.351-13.166 35.186 35.186 0 0 0 -4.728 17.848c0 16.7-6.593 30.424-18.088 37.66a7.166 7.166 0 0 0 -2.989 3.572c-1.892 5.144-6.573 18.05-9.188 26.765l-.7 2.321c-1.992 6.612-4.472 14.84-3.407 16.073a14.763 14.763 0 0 0 2.208 1.414c3.231 1.859 8.114 4.671 9.657 10.543a4.963 4.963 0 0 1 -4.79 6.23zm-13.5-68.539a3.669 3.669 0 0 1 2.362.861 3.625 3.625 0 0 1 1.3 2.866c-.334 15.853-5.923 34.978-8.609 44.169-.284.973-.538 1.841-.752 2.59-1.381 4.835.714 9.838 2.085 12.39a1.243 1.243 0 0 0 1.091.663h16.024c-1.058-3.811-4.553-5.823-7.362-7.44a15.83 15.83 0 0 1 -3.249-2.212c-3.219-3.219-1.423-9.178 2.156-21.051l.7-2.315c2.558-8.528 6.915-20.61 9.284-27.054a12.125 12.125 0 0 1 5.018-6.078c10.01-6.3 15.752-18.485 15.752-33.428 0-15.913 8.6-24.928 8.97-25.3a2.5 2.5 0 0 1 4.261 1.365c1.312 8.545 7.548 12.952 11.149 14.818a8.484 8.484 0 0 1 4.544 6.785 11.03 11.03 0 0 0 5.932 9.291c.266.134.525.254.781.36a5.252 5.252 0 0 0 5.278-.695 5.627 5.627 0 0 0 2.248-5.159l-1.773-16.069a7.066 7.066 0 0 1 .566-3.553c2.989-6.962-.126-13.243-3.266-17.287a5.248 5.248 0 0 1 -.92-4.662 5.441 5.441 0 0 1 3.271-3.6 19.928 19.928 0 0 0 7.022-4.744c-4.266-.611-11.011-1.138-16.881.34a6.111 6.111 0 0 1 -4.582-.671c-5.73-3.33-26.112-12.3-47.747 12.161a137.111 137.111 0 0 1 -14.8 14.882c.89 2.073 1.847 4.07 2.853 5.957a8.819 8.819 0 1 1 -15.807 7.81c-.061-.134-.122-.267-.182-.4-10.861 3.138-19.816 2.6-26.641-1.59a24.382 24.382 0 0 1 -9.661-11.828 30.816 30.816 0 0 0 -34.37 12.513 26.759 26.759 0 0 0 -4.031 19.324c1.916 11.979 5.069 17.241 7.6 21.47 3.832 6.4 5.588 10.365.382 23.9-2.586 6.724.553 11.535 4.9 18.193 4.06 6.221 9.112 13.964 10.2 25.4a.673.673 0 0 0 .583.569h19.153a1.116 1.116 0 0 0 .868-.408 1.135 1.135 0 0 0 .247-.945c-.559-3.024-3.878-4.912-6.807-6.576a20.178 20.178 0 0 1 -4.25-2.883c-4.192-4.19-16.94-16.943-16.625-27.648a11.39 11.39 0 0 1 3.972-8.47 80.516 80.516 0 0 1 9.755-7.085c5.359-3.491 10.421-6.789 13.012-11.713a2.5 2.5 0 0 1 3.1-1.172 74.5 74.5 0 0 0 41.156 3.432 3.744 3.744 0 0 1 .736-.073z"/><path d="m136.921 148.6a8.792 8.792 0 0 1 -7.994-5.156c-15.291-33.173-10.062-62.435-7.1-73.477a2.319 2.319 0 0 0 -1.815-2.881c-25.724-4.833-63.065-14.857-83.641-27.2a41.527 41.527 0 0 1 -20.571-34.245 5.33 5.33 0 0 1 3.038-5.109 5.4 5.4 0 0 1 5.962.868c32.3 29.1 83.712 44.818 104.315 50.223a13.479 13.479 0 0 1 8.383 6.465 13.737 13.737 0 0 1 1.211 10.72c-9.168 31.133-.162 55.232 6.023 66.826a8.839 8.839 0 0 1 -7.813 12.966zm-115.742-143.6a.437.437 0 0 0 -.188.046.3.3 0 0 0 -.194.332 36.648 36.648 0 0 0 18.142 30.222c21.4 12.838 61.607 22.745 81.992 26.575a7.32 7.32 0 0 1 5.722 9.089c-2.818 10.517-7.794 38.4 6.815 70.089a3.824 3.824 0 0 0 7.087-.315 3.759 3.759 0 0 0 -.232-3.047c-6.545-12.268-16.079-37.752-6.408-70.593a8.777 8.777 0 0 0 -.769-6.849 8.527 8.527 0 0 0 -5.3-4.087c-20.957-5.5-73.276-21.508-106.393-51.344a.411.411 0 0 0 -.274-.118z"/><path d="m122.462 81.333c-.059 0-.119 0-.179-.007-49.253-3.493-79.812-13.357-90.83-29.318a23.075 23.075 0 0 1 -3.353-20.355 2.5 2.5 0 0 1 4.1-1.108 40.16 40.16 0 0 0 6.74 5.055c21.4 12.838 61.606 22.745 81.991 26.575a7.32 7.32 0 0 1 5.722 9.089c-.672 2.506-1.253 5.193-1.729 7.987a2.5 2.5 0 0 1 -2.462 2.082zm-90.323-44.307a18.36 18.36 0 0 0 3.429 12.142c6.864 9.944 27.176 22.632 84.832 27.007.415-2.149.891-4.228 1.421-6.2a2.32 2.32 0 0 0 -1.815-2.882c-25.724-4.833-63.065-14.857-83.641-27.2a46.588 46.588 0 0 1 -4.226-2.867z"/><path d="m105.878 96.513c-25.413 0-43.96-4.99-55.255-14.891a32.711 32.711 0 0 1 -11.59-22.912 2.5 2.5 0 0 1 3.967-2.177c14.233 10.4 41.026 17.067 79.634 19.806a2.5 2.5 0 0 1 2.287 2.913 102.113 102.113 0 0 0 -1.386 14.287 2.5 2.5 0 0 1 -2.33 2.425q-8.034.549-15.327.549zm-60.985-32.8a28.4 28.4 0 0 0 9.026 14.145c12.126 10.629 33.888 15.083 64.706 13.257.163-3.373.479-6.718.947-9.993-34.244-2.628-59.31-8.474-74.679-17.405z"/><path d="m98.188 113.244c-12.542 0-22.446-2.608-29.586-7.811a29.157 29.157 0 0 1 -11.85-20.5 2.5 2.5 0 0 1 3.713-2.479c13.19 7.469 33.46 10.338 60.236 8.529a2.684 2.684 0 0 1 .372-.022 2.5 2.5 0 0 1 2.466 2.5v.078a105.463 105.463 0 0 0 .6 14.438 2.5 2.5 0 0 1 -2.014 2.73 128.413 128.413 0 0 1 -23.937 2.537zm-35.419-24.044a23.662 23.662 0 0 0 8.777 12.192c9.706 7.073 25.641 8.692 47.388 4.823-.3-3.345-.444-6.719-.435-10.08-23.592 1.355-42.299-.975-55.73-6.935z"/><path d="m103.88 128.445c-7.893 0-14.482-1.6-19.7-4.8a26.018 26.018 0 0 1 -11.8-16.861 2.5 2.5 0 0 1 3.531-2.8c10.276 4.99 25.5 5.6 45.266 1.813a2.5 2.5 0 0 1 2.956 2.181 106.489 106.489 0 0 0 2.624 14.44 2.5 2.5 0 0 1 -1.806 3.037 86.269 86.269 0 0 1 -21.071 2.99zm-24.963-17.886a20.339 20.339 0 0 0 7.875 8.824c7.736 4.742 19.342 5.35 34.527 1.815-.763-3.321-1.375-6.669-1.827-10-16.636 2.916-30.242 2.702-40.575-.639z"/><path d="m115.881 145.059a25.841 25.841 0 0 1 -13.753-3.588c-9.219-5.65-10.921-15.834-10.989-16.265a2.5 2.5 0 0 1 .51-1.943 2.526 2.526 0 0 1 2.563-.889c7.662 1.87 17.588 1.277 29.5-1.761a2.5 2.5 0 0 1 3.041 1.808 109.358 109.358 0 0 0 5.671 16.591 2.5 2.5 0 0 1 -1.52 3.371 48.944 48.944 0 0 1 -15.023 2.676zm-18.695-17.051a19.219 19.219 0 0 0 7.606 9.231c5.455 3.316 12.834 3.709 21.965 1.177a114.955 114.955 0 0 1 -4.21-12.371c-9.713 2.264-18.213 2.921-25.361 1.963z"/><path d="m96.867 256h-19.157a5.651 5.651 0 0 1 -5.56-5.095 39.07 39.07 0 0 0 -1.807-8.622 2.5 2.5 0 0 1 2.374-3.283h20.743a2.5 2.5 0 0 1 1.255.338c2.524 1.465 7.221 4.192 8.184 9.4a6.141 6.141 0 0 1 -6.032 7.262zm-20.829-12a44.063 44.063 0 0 1 1.089 6.43.673.673 0 0 0 .583.57h19.157a1.116 1.116 0 0 0 .868-.408 1.135 1.135 0 0 0 .247-.945c-.424-2.294-2.372-3.946-5.2-5.647z"/><path d="m155.535 256h-16.024a6.234 6.234 0 0 1 -5.5-3.3 24.936 24.936 0 0 1 -3.13-11.17 2.5 2.5 0 0 1 2.5-2.534h16.22a2.5 2.5 0 0 1 1.248.334c2.966 1.709 7.93 4.57 9.471 10.436a4.963 4.963 0 0 1 -4.79 6.23zm-17.115-5.663a1.243 1.243 0 0 0 1.091.663h16.024c-.98-3.53-4.093-5.54-6.6-7h-12.8a22.279 22.279 0 0 0 2.28 6.337z"/><path d="m96.867 256h-19.157a5.652 5.652 0 0 1 -5.56-5.094 39.066 39.066 0 0 0 -1.807-8.623 2.5 2.5 0 0 1 2.374-3.283h20.743a2.5 2.5 0 0 1 1.255.338c2.524 1.465 7.221 4.192 8.184 9.4a6.141 6.141 0 0 1 -6.032 7.262zm-20.829-12a44.063 44.063 0 0 1 1.089 6.43.673.673 0 0 0 .583.569h19.157a1.116 1.116 0 0 0 .868-.408 1.135 1.135 0 0 0 .247-.945c-.424-2.294-2.372-3.946-5.2-5.647z"/><path d="m110.787 256h-13.919a2.5 2.5 0 0 1 0-5 1.116 1.116 0 0 0 .867-.408 1.135 1.135 0 0 0 .247-.945c-.452-2.446-2.636-4.162-5.777-5.985a2.5 2.5 0 0 1 1.255-4.662h13.92a2.5 2.5 0 0 1 1.255.338c2.524 1.465 7.221 4.192 8.183 9.4a6.14 6.14 0 0 1 -6.031 7.262zm-7.891-5h7.891a1.113 1.113 0 0 0 .868-.408 1.131 1.131 0 0 0 .246-.945c-.423-2.295-2.372-3.946-5.2-5.647h-6.031a10.511 10.511 0 0 1 2.233 4.739 6.159 6.159 0 0 1 -.003 2.261z"/><path d="m174.242 240.332a5.392 5.392 0 0 1 -5.231-4.083l-3.1-12.448a6.226 6.226 0 0 1 3.077-6.953 9.582 9.582 0 0 0 3.514-3.69 2.5 2.5 0 0 1 4.171-.262l8.47 11.292a2.508 2.508 0 0 1 .455 1.974c-1.169 6.064-3.471 9.753-8.21 13.157a5.389 5.389 0 0 1 -3.146 1.013zm.458-21.732a12.946 12.946 0 0 1 -3.312 2.635 1.224 1.224 0 0 0 -.625 1.358l3.1 12.448a.367.367 0 0 0 .242.267.374.374 0 0 0 .366-.05 13.507 13.507 0 0 0 5.992-8.975z"/></svg>