<svg id="Capa_1" enable-background="new 0 0 512 512" height="512" viewBox="0 0 512 512" width="512" xmlns="http://www.w3.org/2000/svg"><g><g><g><g><g><path d="m472.468 130.844h-66.956v-88.808c0-1.87 1.516-3.386 3.386-3.386h50.628c7.148 0 12.942 5.794 12.942 12.942z" fill="#efc984"/><path d="m405.512 130.844h66.956v92.193h-66.956z" fill="#eabc6b"/><path d="m459.526 315.231h-50.628c-1.87 0-3.386-1.516-3.386-3.386v-88.808h66.956v79.251c0 7.148-5.794 12.943-12.942 12.943z" fill="#e5a32e"/></g><g><path d="m92.5 0-17.23 18.508v474.984l17.23 18.508h279.001l5.04-4.554v-501.769l-5.04-5.677z" fill="#e07f84"/><path d="m412.04 0h-40.539v512h40.539c13.526 0 24.491-10.965 24.491-24.491v-463.018c0-13.526-10.965-24.491-24.491-24.491z" fill="#db636e"/><path d="m64.023 0c-13.526 0-24.491 10.965-24.491 24.491v463.018c0 13.526 10.965 24.491 24.491 24.491h28.477v-512z" fill="#edeaed"/></g></g></g><g><path d="m376.541 157.426c-20.359-40.805-62.514-68.832-111.215-68.832-68.602 0-124.214 55.613-124.214 124.214 0 68.602 55.613 124.214 124.214 124.214 48.701 0 90.856-28.027 111.215-68.832z" fill="#f7f4f7"/><path d="m371.501 277.311c11.446-18.801 18.04-40.882 18.04-64.502s-6.593-45.701-18.04-64.502z" fill="#edeaed"/><g><path d="m183.36 388.173h165.277c4.259 0 7.712-3.452 7.712-7.712s-3.453-7.712-7.712-7.712h-165.277c-4.259 0-7.712 3.452-7.712 7.712s3.453 7.712 7.712 7.712z" fill="#665e66"/><path d="m348.636 415.634h-165.276c-4.259 0-7.712 3.452-7.712 7.712s3.453 7.712 7.712 7.712h165.277c4.259 0 7.712-3.452 7.712-7.712s-3.454-7.712-7.713-7.712z" fill="#665e66"/><path d="m229.463 273.587c10.955 7.166 18.37 9.18 28.151 9.65v9.904c0 4.259 3.453 7.712 7.712 7.712s7.712-3.452 7.712-7.712v-10.489c19.043-3.447 30.163-19.014 32.607-33.551 3.102-18.453-6.555-34.497-24.604-40.878-2.878-1.017-5.532-1.991-8.003-2.935v-41.576c7.093 1.451 11.336 5.075 11.683 5.38 3.134 2.843 7.978 2.632 10.85-.483 2.887-3.131 2.69-8.01-.44-10.897-.48-.444-8.684-7.823-22.093-9.628v-8.859c0-4.259-3.453-7.712-7.712-7.712s-7.712 3.452-7.712 7.712v9.451c-1.431.297-2.893.662-4.386 1.111-11.853 3.572-20.712 13.724-23.119 26.498-2.19 11.621 1.516 22.814 9.672 29.211 4.482 3.515 10.089 6.733 17.834 10.15v52.158c-7.133-.414-11.812-1.96-19.708-7.125-3.564-2.331-8.344-1.333-10.675 2.232-2.332 3.565-1.333 8.345 2.231 10.676zm43.575-51.847c.936.338 1.883.679 2.863 1.025 16.231 5.738 15.228 19.651 14.535 23.779-1.395 8.294-7.312 17.129-17.398 20.235zm-23.738-28.379c-3.608-2.83-5.154-8.278-4.034-14.219 1.045-5.543 4.839-12.269 12.349-14.563v33.991c-3.384-1.761-6.1-3.471-8.315-5.209z" fill="#badd93"/></g></g></g></g></svg>